<?xml version="1.0" standalone="no"?>
<!DOCTYPE svg PUBLIC "-//W3C//DTD SVG 20010904//EN"
 "http://www.w3.org/TR/2001/REC-SVG-20010904/DTD/svg10.dtd">
<svg version="1.0" xmlns="http://www.w3.org/2000/svg"
 width="540.000000pt" height="540.000000pt" viewBox="0 0 540.000000 540.000000"
 preserveAspectRatio="xMidYMid meet">
<metadata>
Created by potrace 1.11, written by Peter Selinger 2001-2013
</metadata>
<g transform="translate(0.000000,540.000000) scale(0.100000,-0.100000)"
fill="#000000" stroke="none">
<path d="M2360 5060 c-170 -13 -355 -68 -485 -145 -81 -47 -207 -147 -294
-234 -284 -283 -434 -624 -498 -1133 -24 -191 -24 -624 0 -813 87 -680 361
-1397 717 -1870 191 -255 437 -445 652 -505 551 -155 1126 359 1521 1360 136
343 222 685 269 1060 18 141 17 738 0 880 -51 411 -220 769 -487 1035 -201
201 -412 300 -740 350 -122 19 -497 27 -655 15z m536 -191 c337 -32 565 -130
765 -329 215 -214 372 -518 430 -831 17 -95 22 -168 26 -433 6 -335 -2 -466
-38 -690 -92 -566 -366 -1213 -676 -1596 -90 -111 -228 -241 -317 -299 -162
-106 -276 -144 -431 -144 -229 -1 -419 96 -643 328 -393 406 -718 1180 -797
1895 -20 187 -20 523 0 694 8 72 27 186 41 255 77 380 253 686 523 903 185
149 343 219 557 247 99 12 432 13 560 0z"/>
<path d="M2400 4684 c-232 -34 -348 -80 -505 -202 -273 -211 -436 -483 -508
-843 -44 -216 -52 -302 -51 -549 1 -409 67 -759 220 -1158 245 -641 590 -1062
949 -1157 123 -32 289 -16 412 40 478 218 932 1049 1050 1923 13 96 17 199 17
422 0 430 -27 585 -143 826 -212 440 -499 647 -960 694 -95 9 -423 12 -481 4z
m435 -589 c40 -8 115 -37 174 -66 82 -40 118 -65 170 -118 160 -160 231 -342
218 -560 -22 -381 -331 -672 -714 -671 -123 0 -212 22 -323 77 -179 89 -320
263 -370 459 -27 103 -27 254 -1 356 68 264 275 463 546 523 80 18 214 18 300
0z"/>
</g>
</svg>
